# xmcd
# 
# Track frame offsets:
#     150
#     22372
#     39203
#     54331
#     68934
#     83663
#     101427
#     119545
#     135994
#     149067
#     164021
#     182058
#     196165
# 
# Disc length: 2883
# 
# Revision: 2
# Processed by: cddbd v1.5.2PL0 Copyright (c) Steve Scherf et al.
# Submitted via: fre:ac v1.0.31
# 
DISCID=b70b410d
DTITLE=Route 66 - Even More Songs Of Route 66
DYEAR=2012
DGENRE=Country
TTITLE0=BE THANKFUL FOR WHAT YOU GOT-EMILY GIMBLE
TTITLE1=TRAVELIN' MOOD-SETH WALKER
TTITLE2=ROCKIN' DOWN THE HIGHWAY-BRUCE HUGHES
TTITLE3=WHITE LINE FEVER-DALE WATSON
TTITLE4=LITTLE FLOATER-ELIZABETH McQUEEN
TTITLE5=99 MILES FROM LA-CLAIRE SMALL
TTITLE6=ON THE ROAD AGAIN-CAROLYN WONDERLAND
TTITLE7=PICKIN' CALIFORNIA-SLAID CLEAVES
TTITLE8=HIT THE ROAD, JACK-TIM CURRY
TTITLE9=TRUCKIN' MAN-JASON ROBERTS
TTITLE10=WILLIN'-THE BAND OF HEATHENS
TTITLE11=ROUTE 66-MIKE BARFIELD
TTITLE12=THE ROAD-MATT THE ELECTRICIAN
EXTD=
EXTT0=
EXTT1=
EXTT2=
EXTT3=
EXTT4=
EXTT5=
EXTT6=
EXTT7=
EXTT8=
EXTT9=
EXTT10=
EXTT11=
EXTT12=
PLAYORDER=
